# xmcd CD database file
#
# Track frame offsets:
#	150
#	3404
#	9307
#	15564
#	22371
#	30369
#	40865
#	52095
#	62388
#	72642
#	81614
#	91505
#	101212
#	110136
#	121764
#	129329
#	137838
#	145886
#	153504
#	162394
#	168354
#	174643
#	181475
#	189495
#	200043
#	211240
#	221598
#	231897
#	240890
#	250851
#	260575
#	269541
#	281205
#	288807
#	297333
#	305483
#	313192
#
# Disc length: 4294 seconds
#
# Revision: 0
# Processed by: cddbd v1.5.2PL0 Copyright (c) Steve Scherf et al.
# Submitted via: CDex 1.77
#
DISCID=2710c425
DTITLE=Mike Carubia/Jeff Jarvis - Effective Etudes For Jazz
DYEAR=2004
DGENRE=Jazz
TTITLE0=Tuning Note
TTITLE1=Keep Smilin'
TTITLE2=Moonmen
TTITLE3=Minor Is Finer
TTITLE4=Baggage Claim Blues
TTITLE5=Dido
TTITLE6=Isle Of Melon
TTITLE7=It's From Heaven
TTITLE8=The Moon Is High
TTITLE9=Blue Note Blues
TTITLE10=Softly
TTITLE11=You're The Last One
TTITLE12=I Got Yer Rhythm!
TTITLE13=The Sum Of Your Attributes
TTITLE14=This Is Love
TTITLE15=My Glowing Moment
TTITLE16=Sweet Georgia
TTITLE17=It's Nobody For Me
TTITLE18=I Got Rid Of 'Em
TTITLE19=Keep Smilin'
TTITLE20=Moonmen
TTITLE21=Minor Is Finer
TTITLE22=Baggage Claim Blues
TTITLE23=Dido
TTITLE24=Isle Of Melon
TTITLE25=It's From Heaven
TTITLE26=The Moon Is High
TTITLE27=Blue Note Blues
TTITLE28=Softly
TTITLE29=You're The Last One
TTITLE30=I Got Yer Rhythm!
TTITLE31=The Sum Of Your Attributes
TTITLE32=This Is Love
TTITLE33=My Glowing Moment
TTITLE34=Sweet Georgia
TTITLE35=It's Nobody For Me
TTITLE36=I Got Rid Of 'Em
EXTD=YEAR: 2004
EXTT0=
EXTT1=
EXTT2=
EXTT3=
EXTT4=
EXTT5=
EXTT6=
EXTT7=
EXTT8=
EXTT9=
EXTT10=
EXTT11=
EXTT12=
EXTT13=
EXTT14=
EXTT15=
EXTT16=
EXTT17=
EXTT18=
EXTT19=
EXTT20=
EXTT21=
EXTT22=
EXTT23=
EXTT24=
EXTT25=
EXTT26=
EXTT27=
EXTT28=
EXTT29=
EXTT30=
EXTT31=
EXTT32=
EXTT33=
EXTT34=
EXTT35=
EXTT36=
PLAYORDER=
